<svg xmlns="http://www.w3.org/2000/svg" viewBox="0 0 840 320" fill="none">
  <path d="M58 252c90-18 152-44 214-104 44-44 74-76 138-76 68 0 108 36 160 92 60 64 126 98 212 98" stroke="#2a241d" stroke-opacity="0.55" stroke-width="3" stroke-linecap="round"/>
  <path d="M86 248c70-14 118-34 168-80 32-30 62-54 104-54 52 0 82 26 122 64 44 42 96 68 170 68" stroke="#2a241d" stroke-opacity="0.28" stroke-width="3" stroke-linecap="round"/>
  <path d="M120 238c44-10 74-24 104-52 22-20 44-34 70-34 34 0 54 16 80 36 26 20 60 38 110 38" stroke="#2a241d" stroke-opacity="0.22" stroke-width="3" stroke-linecap="round"/>
  <path d="M92 92c18-16 44-24 78-24 44 0 66 12 92 26 22 12 42 20 70 20 40 0 66-16 98-30 26-12 52-20 90-20 40 0 72 10 96 24" stroke="#2a241d" stroke-opacity="0.20" stroke-width="3" stroke-linecap="round"/>
  <path d="M640 90c18 10 30 28 30 48 0 28-22 50-50 50-26 0-46-18-50-40" stroke="#2a241d" stroke-opacity="0.16" stroke-width="3" stroke-linecap="round"/>
</svg>

