<svg xmlns="http://www.w3.org/2000/svg" viewBox="0 0 840 320" fill="none">
  <defs>
    <filter id="paper" x="-20%" y="-20%" width="140%" height="140%">
      <feGaussianBlur stdDeviation="0.6" />
    </filter>
  </defs>
  <rect x="40" y="40" width="760" height="240" rx="28" stroke="#2a241d" stroke-opacity="0.55" stroke-width="2.5"/>
  <path d="M90 80c70 26 140 26 210 0 66-24 134-24 200 0 70 26 140 26 210 0" stroke="#2a241d" stroke-opacity="0.35" stroke-width="3" stroke-linecap="round"/>
  <path d="M90 130c70 26 140 26 210 0 66-24 134-24 200 0 70 26 140 26 210 0" stroke="#2a241d" stroke-opacity="0.32" stroke-width="3" stroke-linecap="round"/>
  <path d="M90 180c70 26 140 26 210 0 66-24 134-24 200 0 70 26 140 26 210 0" stroke="#2a241d" stroke-opacity="0.28" stroke-width="3" stroke-linecap="round"/>
  <path d="M90 230c70 26 140 26 210 0 66-24 134-24 200 0 70 26 140 26 210 0" stroke="#2a241d" stroke-opacity="0.24" stroke-width="3" stroke-linecap="round"/>
  <path d="M66 64c-18 10-26 28-26 52v88c0 24 8 42 26 52" stroke="#2a241d" stroke-opacity="0.55" stroke-width="2.5" stroke-linecap="round"/>
  <path d="M774 64c18 10 26 28 26 52v88c0 24-8 42-26 52" stroke="#2a241d" stroke-opacity="0.55" stroke-width="2.5" stroke-linecap="round"/>
  <path d="M120 100h200M120 150h260M120 200h300" stroke="#2a241d" stroke-opacity="0.18" stroke-width="6" stroke-linecap="round" filter="url(#paper)"/>
</svg>

